{
	"asset":{
		"generator":"Khronos glTF Blender I/O v4.2.57",
		"version":"2.0"
	},
	"scene":0,
	"scenes":[
		{
			"name":"Scene",
			"nodes":[
				0,
				1,
				2,
				3,
				4,
				5
			]
		}
	],
	"nodes":[
		{
			"mesh":0,
			"name":"logo-background-red",
			"rotation":[
				0.7071068286895752,
				0,
				0,
				0.7071068286895752
			],
			"scale":[
				2.5,
				2.5,
				2.5
			],
			"translation":[
				0,
				0,
				-0.0502154640853405
			]
		},
		{
			"mesh":1,
			"name":"logo-background-black",
			"rotation":[
				0.7071068286895752,
				0,
				0,
				0.7071068286895752
			],
			"scale":[
				2.5,
				2.5,
				2.5
			],
			"translation":[
				0,
				0,
				-0.0502154640853405
			]
		},
		{
			"mesh":2,
			"name":"logo-return",
			"rotation":[
				0.7071068286895752,
				0,
				0,
				0.7071068286895752
			],
			"scale":[
				2.5,
				2.5,
				2.5
			],
			"translation":[
				0,
				0,
				0.017683977261185646
			]
		},
		{
			"mesh":3,
			"name":"logo-white",
			"rotation":[
				0.7071068286895752,
				0,
				0,
				0.7071068286895752
			],
			"scale":[
				2.5,
				2.5,
				2.5
			],
			"translation":[
				0,
				0,
				0.08728154748678207
			]
		},
		{
			"mesh":4,
			"name":"Plane"
		},
		{
			"mesh":5,
			"name":"Plane.001",
			"rotation":[
				0.7071068286895752,
				0,
				0,
				0.7071068286895752
			],
			"scale":[
				15.203850746154785,
				1,
				3.8124136924743652
			]
		}
	],
	"materials":[
		{
			"doubleSided":true,
			"name":"red",
			"pbrMetallicRoughness":{
				"baseColorFactor":[
					0.359880656003952,
					0.0022132876329123974,
					0.0038796740118414164,
					1
				],
				"metallicFactor":0.7545454502105713,
				"roughnessFactor":0.8272727131843567
			}
		},
		{
			"doubleSided":true,
			"name":"black",
			"pbrMetallicRoughness":{
				"baseColorFactor":[
					0,
					0,
					0,
					1
				],
				"roughnessFactor":0.6522727012634277
			}
		},
		{
			"doubleSided":true,
			"name":"Return",
			"pbrMetallicRoughness":{
				"baseColorFactor":[
					0.011288570240139961,
					0.011288570240139961,
					0.011288570240139961,
					1
				],
				"roughnessFactor":0.331818163394928
			}
		},
		{
			"doubleSided":true,
			"name":"Material.002",
			"pbrMetallicRoughness":{
				"baseColorFactor":[
					0.800000011920929,
					0.800000011920929,
					0.800000011920929,
					1
				],
				"metallicFactor":0,
				"roughnessFactor":0
			}
		},
		{
			"doubleSided":true,
			"name":"red.001",
			"pbrMetallicRoughness":{
				"baseColorFactor":[
					0.24980412423610687,
					0.0018735947087407112,
					0.00323670101352036,
					1
				],
				"roughnessFactor":0.9159091114997864
			}
		},
		{
			"doubleSided":true,
			"name":"Material.001",
			"pbrMetallicRoughness":{
				"baseColorFactor":[
					0,
					0,
					0,
					1
				],
				"roughnessFactor":0
			}
		}
	],
	"meshes":[
		{
			"name":"Curve",
			"primitives":[
				{
					"attributes":{
						"POSITION":0,
						"NORMAL":1,
						"TEXCOORD_0":2
					},
					"indices":3,
					"material":0
				}
			]
		},
		{
			"name":"Curve.001",
			"primitives":[
				{
					"attributes":{
						"POSITION":4,
						"NORMAL":5,
						"TEXCOORD_0":6
					},
					"indices":7,
					"material":1
				}
			]
		},
		{
			"name":"Curve.009",
			"primitives":[
				{
					"attributes":{
						"POSITION":8,
						"NORMAL":9,
						"TEXCOORD_0":10
					},
					"indices":11,
					"material":2
				}
			]
		},
		{
			"name":"Curve.010",
			"primitives":[
				{
					"attributes":{
						"POSITION":12,
						"NORMAL":13,
						"TEXCOORD_0":14
					},
					"indices":11,
					"material":3
				}
			]
		},
		{
			"name":"Plane",
			"primitives":[
				{
					"attributes":{
						"POSITION":15,
						"NORMAL":16,
						"TEXCOORD_0":17
					},
					"indices":18,
					"material":4
				}
			]
		},
		{
			"name":"Plane.001",
			"primitives":[
				{
					"attributes":{
						"POSITION":19,
						"NORMAL":20,
						"TEXCOORD_0":21
					},
					"indices":22,
					"material":5
				}
			]
		}
	],
	"accessors":[
		{
			"bufferView":0,
			"componentType":5126,
			"count":18,
			"max":[
				1.168536901473999,
				0.00634999992325902,
				0.27713102102279663
			],
			"min":[
				-1.2569305896759033,
				-0.00634999992325902,
				-0.27874070405960083
			],
			"type":"VEC3"
		},
		{
			"bufferView":1,
			"componentType":5126,
			"count":18,
			"type":"VEC3"
		},
		{
			"bufferView":2,
			"componentType":5126,
			"count":18,
			"type":"VEC2"
		},
		{
			"bufferView":3,
			"componentType":5123,
			"count":36,
			"type":"SCALAR"
		},
		{
			"bufferView":4,
			"componentType":5126,
			"count":36,
			"max":[
				1.175027847290039,
				0.006375399883836508,
				0.2836209535598755
			],
			"min":[
				-1.2634220123291016,
				-0.006375399883836508,
				-0.28523051738739014
			],
			"type":"VEC3"
		},
		{
			"bufferView":5,
			"componentType":5126,
			"count":36,
			"type":"VEC3"
		},
		{
			"bufferView":6,
			"componentType":5126,
			"count":36,
			"type":"VEC2"
		},
		{
			"bufferView":7,
			"componentType":5123,
			"count":96,
			"type":"SCALAR"
		},
		{
			"bufferView":8,
			"componentType":5126,
			"count":4636,
			"max":[
				1.041940450668335,
				0.02539999969303608,
				0.13474854826927185
			],
			"min":[
				-1.1303346157073975,
				-0.02539999969303608,
				-0.15723851323127747
			],
			"type":"VEC3"
		},
		{
			"bufferView":9,
			"componentType":5126,
			"count":4636,
			"type":"VEC3"
		},
		{
			"bufferView":10,
			"componentType":5126,
			"count":4636,
			"type":"VEC2"
		},
		{
			"bufferView":11,
			"componentType":5123,
			"count":13752,
			"type":"SCALAR"
		},
		{
			"bufferView":12,
			"componentType":5126,
			"count":4636,
			"max":[
				1.041940450668335,
				0.0023812500294297934,
				0.13474854826927185
			],
			"min":[
				-1.1303346157073975,
				-0.0023812500294297934,
				-0.15723851323127747
			],
			"type":"VEC3"
		},
		{
			"bufferView":13,
			"componentType":5126,
			"count":4636,
			"type":"VEC3"
		},
		{
			"bufferView":14,
			"componentType":5126,
			"count":4636,
			"type":"VEC2"
		},
		{
			"bufferView":15,
			"componentType":5126,
			"count":192,
			"max":[
				4.666015625,
				1.1728794574737549,
				-0.05242986977100372
			],
			"min":[
				-4.648924827575684,
				-1.1872884035110474,
				-0.07782992720603943
			],
			"type":"VEC3"
		},
		{
			"bufferView":16,
			"componentType":5126,
			"count":192,
			"type":"VEC3"
		},
		{
			"bufferView":17,
			"componentType":5126,
			"count":192,
			"type":"VEC2"
		},
		{
			"bufferView":18,
			"componentType":5123,
			"count":288,
			"type":"SCALAR"
		},
		{
			"bufferView":19,
			"componentType":5126,
			"count":4,
			"max":[
				0.30466651916503906,
				-0.07284319400787354,
				0.30559042096138
			],
			"min":[
				-0.30493348836898804,
				-0.07284319400787354,
				-0.3040095865726471
			],
			"type":"VEC3"
		},
		{
			"bufferView":20,
			"componentType":5126,
			"count":4,
			"type":"VEC3"
		},
		{
			"bufferView":21,
			"componentType":5126,
			"count":4,
			"type":"VEC2"
		},
		{
			"bufferView":22,
			"componentType":5123,
			"count":6,
			"type":"SCALAR"
		}
	],
	"bufferViews":[
		{
			"buffer":0,
			"byteLength":216,
			"byteOffset":0,
			"target":34962
		},
		{
			"buffer":0,
			"byteLength":216,
			"byteOffset":216,
			"target":34962
		},
		{
			"buffer":0,
			"byteLength":144,
			"byteOffset":432,
			"target":34962
		},
		{
			"buffer":0,
			"byteLength":72,
			"byteOffset":576,
			"target":34963
		},
		{
			"buffer":0,
			"byteLength":432,
			"byteOffset":648,
			"target":34962
		},
		{
			"buffer":0,
			"byteLength":432,
			"byteOffset":1080,
			"target":34962
		},
		{
			"buffer":0,
			"byteLength":288,
			"byteOffset":1512,
			"target":34962
		},
		{
			"buffer":0,
			"byteLength":192,
			"byteOffset":1800,
			"target":34963
		},
		{
			"buffer":0,
			"byteLength":55632,
			"byteOffset":1992,
			"target":34962
		},
		{
			"buffer":0,
			"byteLength":55632,
			"byteOffset":57624,
			"target":34962
		},
		{
			"buffer":0,
			"byteLength":37088,
			"byteOffset":113256,
			"target":34962
		},
		{
			"buffer":0,
			"byteLength":27504,
			"byteOffset":150344,
			"target":34963
		},
		{
			"buffer":0,
			"byteLength":55632,
			"byteOffset":177848,
			"target":34962
		},
		{
			"buffer":0,
			"byteLength":55632,
			"byteOffset":233480,
			"target":34962
		},
		{
			"buffer":0,
			"byteLength":37088,
			"byteOffset":289112,
			"target":34962
		},
		{
			"buffer":0,
			"byteLength":2304,
			"byteOffset":326200,
			"target":34962
		},
		{
			"buffer":0,
			"byteLength":2304,
			"byteOffset":328504,
			"target":34962
		},
		{
			"buffer":0,
			"byteLength":1536,
			"byteOffset":330808,
			"target":34962
		},
		{
			"buffer":0,
			"byteLength":576,
			"byteOffset":332344,
			"target":34963
		},
		{
			"buffer":0,
			"byteLength":48,
			"byteOffset":332920,
			"target":34962
		},
		{
			"buffer":0,
			"byteLength":48,
			"byteOffset":332968,
			"target":34962
		},
		{
			"buffer":0,
			"byteLength":32,
			"byteOffset":333016,
			"target":34962
		},
		{
			"buffer":0,
			"byteLength":12,
			"byteOffset":333048,
			"target":34963
		}
	],
	"buffers":[
		{
			"byteLength":333060,
			"uri":"4223-Sign.bin"
		}
	]
}
